<?xml version="1.0" encoding="UTF-8" standalone="no"?>

<svg
   xmlns:dc="http://purl.org/dc/elements/1.1/"
   xmlns:cc="http://creativecommons.org/ns#"
   xmlns:rdf="http://www.w3.org/1999/02/22-rdf-syntax-ns#"
   xmlns:svg="http://www.w3.org/2000/svg"
   xmlns="http://www.w3.org/2000/svg"
   width="100"
   height="100"
   viewBox="-5 -5 93 84"
   version="1.1">
  <g
     id="layer1"
     transform="translate(-56.5,-107)">
    <path
       style="fill:#000000"
       stroke="black"
       stroke-width="2"
       d="m 105.22203,181.83182 c -0.65484,-0.2053 -2.50031,-0.78025 -4.10104,-1.27766 -11.425727,-3.55043 -22.061967,-9.84871 -31.832767,-18.84984 -3.14805,-2.90008 -3.06191,-2.44205 -1.18842,-6.31909 l 1.21738,-2.5193 3.02268,3.14425 c 1.66248,1.72933 2.96868,2.96307 2.90267,2.74164 -1.24243,-4.16785 -1.27974,-8.47177 -0.0934,-10.77852 0.82235,-1.59907 2.23055,-2.73549 4.20051,-3.3898 2.16478,-0.71903 6.98753,-0.39773 12.1141,0.80708 5.93681,1.39521 11.022517,2.40146 14.948957,2.95776 4.85244,0.68751 16.66053,0.69105 21.03437,0.006 2.53354,-0.39663 7.67733,-1.52282 9.9586,-2.18034 0.47765,-0.13767 0.81317,0.18483 2.15161,2.0681 2.57081,3.61731 2.64708,3.193 -0.77268,4.29853 -8.11901,2.6247 -15.36684,3.87852 -25.22815,4.36426 -2.91042,0.14337 -7.49433,0.3697 -10.18646,0.50298 -6.680697,0.33073 -9.033067,1.05214 -10.682517,3.27604 -0.8268,1.11475 -0.9076,3.85062 -0.17156,5.80855 1.55118,4.12624 5.9776,8.72351 12.881367,13.37858 1.30403,0.87928 1.6022,1.2073 1.48942,1.63856 -0.19116,0.73099 -0.29541,0.75115 -1.66463,0.32189 z m -3.70417,-2.18487 -0.66145,-0.53008 0.79375,0.17819 c 0.67282,0.15106 0.544,-0.0109 -0.8456,-1.06321 -4.165387,-3.15428 -7.526467,-6.89338 -9.136777,-10.16439 -0.69962,-1.42112 -0.85453,-2.07905 -0.9382,-3.98469 -0.0918,-2.0914 -0.0376,-2.4039 0.64767,-3.73224 1.40966,-2.73247 4.02462,-3.37282 15.167697,-3.71423 10.56233,-0.32361 16.20284,-0.89425 22.35729,-2.26183 3.75126,-0.83357 9.94232,-2.77813 9.76393,-3.06677 -0.0758,-0.12269 0.0407,-0.22307 0.25901,-0.22307 0.76735,0 0.67069,-0.47375 -0.40243,-1.97234 -0.86428,-1.20694 -1.19464,-1.4837 -1.63397,-1.36881 -0.30287,0.0792 -0.69753,0.0221 -0.87703,-0.12685 -0.22717,-0.18853 -1.23655,-0.0677 -3.32106,0.39768 -11.66568,2.60426 -24.39805,2.52504 -36.751827,-0.22865 -14.50509,-3.23322 -16.24013,-3.36481 -18.60993,-1.41143 -2.99277,2.4669 -3.17975,7.54107 -0.53919,14.63227 0.11181,0.30026 -0.46099,-0.10033 -1.32412,-0.92604 -1.24959,-1.1954 -1.48766,-1.33711 -1.33346,-0.79375 0.1371,0.48312 -0.45155,0.0309 -2.18326,-1.67713 -1.86156,-1.83612 -2.40702,-2.24467 -2.53872,-1.90146 -0.0923,0.24042 -0.29035,0.36136 -0.44021,0.26874 -0.1539,-0.0951 -0.56163,0.48548 -0.93699,1.33423 -0.79072,1.78795 -1.02112,1.39773 2.92551,4.95478 8.19894,7.3896 17.42097,13.02276 27.22185,16.62814 3.869627,1.42349 4.293627,1.51914 3.337517,0.75294 z m 4.96094,-33.24975 c -0.40018,-0.0606 -0.7276,-0.26056 -0.7276,-0.44431 0,-0.25978 0.39727,-0.2807 1.78594,-0.0941 1.78637,0.24008 3.37857,0.1704 4.49791,-0.19684 0.49138,-0.16122 0.59532,-0.0975 0.59532,0.36471 0,0.53646 -0.1141,0.55836 -2.71198,0.52038 -1.49159,-0.0218 -3.03941,-0.0892 -3.43959,-0.14987 z m -5.83172,-1.19342 c -1.715857,-0.44038 -3.082097,-0.91362 -3.036097,-1.05164 0.11392,-0.34174 -0.0547,-0.36431 3.578237,0.4788 1.78377,0.41395 3.20508,0.86708 3.15846,1.00694 -0.14388,0.43164 -0.48197,0.39198 -3.7006,-0.4341 z m 13.20573,0.25845 c -0.10772,-0.39541 -0.0194,-0.68415 0.26295,-0.85989 1.67777,-1.04418 2.46746,-1.80996 2.97088,-2.88093 0.58128,-1.23662 0.73113,-1.34505 1.46808,-1.06225 0.36915,0.14165 0.37053,0.25563 0.0134,1.11024 -0.60407,1.44573 -1.64349,2.67362 -2.98159,3.52222 -1.45255,0.92118 -1.52728,0.92854 -1.73377,0.17061 z m -21.180137,-2.28765 c -1.59064,-0.39112 -2.94002,-0.85496 -2.99861,-1.03075 -0.14596,-0.43788 0.16063,-0.40209 3.59167,0.41922 1.64596,0.394 2.99171,0.83543 2.99054,0.98095 -0.004,0.43332 -0.54675,0.37732 -3.5836,-0.36942 z m -8.02684,-1.60235 c -1.49426,-0.2548 -2.79402,-0.54046 -2.88837,-0.63481 -0.43977,-0.43977 0.36562,-0.45297 3.00679,-0.0493 3.41826,0.52248 3.84349,0.6339 3.64496,0.95512 -0.19242,0.31135 -0.46192,0.29194 -3.76338,-0.27103 z m -27.25276,-0.58698 c -0.36509,-0.3651 -0.43772,-1.01312 -0.11354,-1.01312 0.11642,0 0.34642,0.13474 0.51111,0.29943 0.22285,0.22286 0.8143,0.22286 2.31268,0 2.48646,-0.36981 3.84371,-0.38212 3.84371,-0.0348 0,0.14552 -0.20836,0.26826 -0.46302,0.27276 -0.62868,0.0111 -4.27207,0.48151 -5.09875,0.65833 -0.36684,0.0785 -0.81332,-0.004 -0.99219,-0.18255 z m 18.26178,-0.41622 c -1.75361,-0.0716 -2.18282,-0.16951 -2.18282,-0.49788 0,-0.418 0.97279,-0.40738 5.49011,0.0599 1.73214,0.17919 1.8403,0.65412 0.13229,0.58093 -0.69122,-0.0296 -2.23904,-0.094 -3.43958,-0.14299 z m -10.3849,-0.42865 c 0,-0.37853 0.43155,-0.43283 3.43958,-0.43283 2.11667,0 3.43959,0.10176 3.43959,0.26458 0,0.15529 -0.91374,0.26458 -2.21203,0.26458 -1.21662,0 -2.76443,0.0757 -3.43959,0.16826 -1.02866,0.14099 -1.22755,0.0981 -1.22755,-0.26459 z m 53.181247,-0.86706 c -0.32567,-0.0888 -0.39688,-0.698 -0.39688,-3.39534 0,-3.04459 0.0383,-3.29709 0.5197,-3.42297 0.78746,-0.20592 0.92737,0.2693 0.92785,3.15149 5.3e-4,2.61271 -0.15963,3.86558 -0.48622,3.80577 -0.0922,-0.0169 -0.34617,-0.0794 -0.56445,-0.13895 z m -63.735177,-2.24101 c -0.74287,-1.20711 -1.26174,-2.27708 -1.15306,-2.37772 0.10869,-0.10063 0.79293,-0.30721 1.52053,-0.45908 1.7252,-0.36008 2.22818,0.0847 0.5684,0.50267 -0.67642,0.17033 -1.22986,0.4204 -1.22986,0.55571 0,0.13532 0.4824,0.97229 1.07199,1.85994 0.67195,1.01164 0.97882,1.70708 0.82232,1.86357 -0.15649,0.1565 -0.75369,-0.56936 -1.60032,-1.94509 z m 68.288087,-0.93693 c -0.88345,-1.14201 -1.61442,-2.19544 -1.62438,-2.34096 -0.0368,-0.53776 0.48536,-0.23739 1.24161,0.71423 0.57275,0.72071 0.85576,0.9009 1.07331,0.68336 0.21755,-0.21755 0.34335,-0.17063 0.4771,0.17791 0.16964,0.44208 0.20956,0.4372 0.60398,-0.0738 0.37133,-0.48107 0.48194,-0.50273 0.91573,-0.17931 0.47471,0.35393 0.46357,0.41951 -0.29385,1.73141 l -0.78723,1.36354 z m -64.877907,-2.17745 c 0,-0.33478 1.26805,-0.66807 4.17736,-1.09795 1.97667,-0.29208 2.77645,-0.24264 2.3863,0.14751 -0.0765,0.0765 -1.25722,0.31588 -2.62378,0.53193 -1.36657,0.21604 -2.81209,0.46056 -3.21227,0.54336 -0.42418,0.0878 -0.72761,0.0357 -0.72761,-0.12485 z m 68.189167,-0.067 c -0.30479,-0.17057 -0.41041,-0.45202 -0.3145,-0.83812 0.11359,-0.45731 -0.30747,-1.06813 -1.97392,-2.8635 l -2.1183,-2.28218 0.54812,-0.49594 c 0.54232,-0.49069 0.56055,-0.48194 1.72156,0.82697 3.80046,4.28459 3.62839,4.02643 3.26636,4.90044 -0.40753,0.98388 -0.54816,1.07756 -1.12932,0.75233 z m -60.251667,-1.09017 c 0,-0.45569 0.97351,-0.65076 4.4952,-0.90074 2.01751,-0.1432 2.38397,-0.10823 2.38397,0.2275 0,0.31705 -0.5712,0.43207 -2.84427,0.57276 -1.56435,0.0968 -3.11216,0.24767 -3.43959,0.33522 -0.42207,0.11285 -0.59531,0.0445 -0.59531,-0.23474 z m 53.116317,-1.09487 c -0.63767,-0.5636 -1.04886,-1.1964 -1.15334,-1.77492 l -0.16236,-0.89905 1.45499,1.5875 c 1.29341,1.4112 1.60617,2.0078 1.0345,1.97336 -0.10055,-0.006 -0.62876,-0.40516 -1.17379,-0.88689 z m -44.914237,0.23644 c 0,-0.33242 0.55857,-0.39687 3.43959,-0.39687 2.88101,0 3.43958,0.0644 3.43958,0.39687 0,0.33243 -0.55857,0.39688 -3.43958,0.39688 -2.88102,0 -3.43959,-0.0644 -3.43959,-0.39688 z m 8.20208,0.0151 c 0,-0.30811 0.64298,-0.39742 3.33322,-0.46302 1.83327,-0.0447 3.38811,0.008 3.4552,0.11717 0.34498,0.56121 -0.45469,0.72761 -3.49674,0.72761 -2.6916,-1e-5 -3.29168,-0.0696 -3.29168,-0.38177 z m 8.20209,-0.35238 c 0,-0.11273 1.03116,-0.41722 2.29147,-0.67665 1.2603,-0.25942 2.6432,-0.65356 3.0731,-0.87587 0.51714,-0.26742 0.87051,-0.31535 1.04423,-0.14162 0.35465,0.35465 -0.32258,0.69206 -2.7258,1.35803 -1.98898,0.55116 -3.683,0.70576 -3.683,0.3361 z m 7.53826,-2.44468 c -0.1,-0.16176 -0.006,-0.49497 0.20912,-0.74046 0.75452,-0.86157 1.33294,-2.312 1.48839,-3.73227 0.097,-0.88574 0.299197,-1.481 0.529097,-1.55721 0.63205,-0.20953 0.15231,2.94957 -0.680177,4.47915 -0.83044,1.52579 -1.28201,1.97863 -1.54643,1.55079 z m 20.142067,-4.65841 c -2.13627,-2.05527 -2.31208,-2.29858 -1.9341,-2.67656 0.51871,-0.51871 0.80166,-0.34188 3.61869,2.26141 1.74502,1.61263 1.93781,1.88177 1.62124,2.26321 -0.19761,0.23811 -0.49354,0.42838 -0.65762,0.42282 -0.16408,-0.006 -1.35578,-1.02745 -2.64821,-2.27088 z m -18.928137,-3.60601 c -0.18007,-0.61846 -0.80644,-1.93975 -1.39193,-2.9362 -0.69663,-1.18558 -0.97474,-1.90151 -0.80473,-2.07152 0.30973,-0.30973 1.85733,2.12641 2.68322,4.22377 0.645957,1.64043 0.673457,1.90843 0.195837,1.90843 -0.195247,0 -0.502327,-0.50602 -0.682397,-1.12448 z m 15.071717,0.21219 c -0.18805,-0.22659 -1.33911,-1.15055 -2.55791,-2.05324 -1.2188,-0.90269 -2.216,-1.71307 -2.216,-1.80084 0,-0.0878 0.14883,-0.35713 0.33073,-0.59857 0.2969,-0.39411 0.53609,-0.28428 2.33877,1.07391 1.10442,0.83209 2.34669,1.78538 2.7606,2.11839 l 0.75255,0.60549 -0.53341,0.53342 c -0.47801,0.47801 -0.56893,0.49062 -0.87533,0.12144 z m -8.93144,-6.45301 c -1.48627,-0.96955 -2.70666,-1.82937 -2.71198,-1.91069 -0.005,-0.0813 0.14408,-0.35812 0.33198,-0.61509 0.31496,-0.43074 0.56306,-0.32127 3.17855,1.40254 2.62861,1.73246 2.81256,1.90876 2.50514,2.40102 -0.18248,0.2922 -0.39244,0.52087 -0.46658,0.50816 -0.0741,-0.0127 -1.35083,-0.81638 -2.83711,-1.78594 z m -9.600807,0.27606 c 0,-0.13272 -0.9525,-1.25937 -2.11666,-2.50366 -1.97926,-2.11547 -2.45858,-2.84252 -1.87401,-2.84252 0.34459,0 4.51453,4.56491 4.51744,4.94532 0.001,0.17332 -0.11666,0.3887 -0.26218,0.47864 -0.14552,0.0899 -0.26459,0.0549 -0.26459,-0.0778 z m 2.52273,-4.42837 c -1.45017,-0.76555 -2.66862,-1.4936 -2.70769,-1.61788 -0.0391,-0.12428 0.0417,-0.40438 0.17937,-0.62245 0.21095,-0.33403 0.73237,-0.15655 3.31096,1.127 2.803677,1.39559 3.036907,1.56767 2.778707,2.05012 -0.15502,0.28966 -0.4265,0.51056 -0.60328,0.49088 -0.17678,-0.0197 -1.507907,-0.66212 -2.958067,-1.42767 z m -10.232,-3.359 c -2.09774,-1.74221 -2.26256,-1.94794 -2.00805,-2.50652 0.34984,-0.76783 0.48526,-0.7618 1.25332,0.0558 0.43098,0.45876 0.6834,0.56828 0.81584,0.35398 0.13662,-0.22104 1.1057,0.0547 3.36898,0.95868 3.06467,1.22403 3.16737,1.29053 2.89992,1.87751 l -0.27726,0.60852 -1.34091,-0.52853 c -0.7375,-0.2907 -1.42349,-0.57958 -1.52443,-0.64196 -0.10093,-0.0624 -0.63373,-0.17106 -1.18398,-0.24151 l -1.00045,-0.12809 0.8396,0.86625 c 0.82701,0.85325 1.03091,1.24471 0.64117,1.23092 -0.10914,-0.004 -1.22683,-0.86111 -2.48375,-1.90501 z"
       id="path3724"
        />
  </g>
</svg>
