<?xml version="1.0" encoding="UTF-8" standalone="no"?>

<svg xmlns:dc="http://purl.org/dc/elements/1.1/"
    xmlns:cc="http://creativecommons.org/ns#"
    xmlns:rdf="http://www.w3.org/1999/02/22-rdf-syntax-ns#"
    xmlns:svg="http://www.w3.org/2000/svg"
    xmlns="http://www.w3.org/2000/svg" viewBox="0 0 36 36" fill="#0062E0" height="40" width="40" version="1.1">

    <path d="M15 35.8C6.5 34.3 0 26.9 0 18 0 8.1 8.1 0 18 0s18 8.1 18 18c0 8.9-6.5 16.3-15 17.8l-1-.8h-4l-1 .8z"></path>
    <path style="fill:#ffffff" stroke="white" d="M25 23l.8-5H21v-3.5c0-1.4.5-2.5 2.7-2.5H26V7.4c-1.3-.2-2.7-.4-4-.4-4.1 0-7 2.5-7 7v4h-4.5v5H15v12.7c1 .2 2 .3 3 .3s2-.1 3-.3V23h4z"></path>
</svg>
