<svg id="svg" version="1.1" xmlns="http://www.w3.org/2000/svg" xmlns:xlink="http://www.w3.org/1999/xlink" width="400" height="400" viewBox="0, 0, 400,400"><g id="svgg"><path id="path0" d="M198.210 17.943 C 169.256 27.816,158.407 62.404,176.651 86.674 C 200.287 118.117,250.286 104.938,255.934 65.776 C 260.503 34.105,228.525 7.607,198.210 17.943 M223.009 34.917 C 240.755 44.009,244.702 64.465,231.446 78.637 C 214.518 96.735,184.486 84.206,184.722 59.144 C 184.895 40.776,207.065 26.747,223.009 34.917 M129.198 96.349 C 122.240 98.632,124.270 96.687,88.104 135.718 C 62.767 163.062,60.180 166.389,57.490 175.093 C 46.805 209.668,81.216 241.894,115.792 229.694 L 119.426 228.412 120.347 232.126 C 120.854 234.169,122.064 237.853,123.036 240.312 L 124.803 244.784 117.376 268.232 L 109.949 291.681 92.402 316.416 C 81.779 331.389,74.240 342.897,73.297 345.575 C 66.704 364.302,80.221 384.068,99.621 384.070 C 113.543 384.072,117.744 380.547,134.435 354.867 C 140.603 345.376,148.940 332.571,152.960 326.411 C 159.116 316.977,161.034 313.084,165.118 301.723 C 167.785 294.305,170.172 287.906,170.421 287.502 C 170.670 287.099,175.436 290.642,181.012 295.375 L 191.150 303.981 191.157 329.203 C 191.161 343.075,191.575 356.962,192.079 360.063 C 196.539 387.550,233.060 393.241,245.310 368.358 L 248.230 362.427 248.230 318.160 C 248.230 264.337,251.250 273.237,223.005 243.805 C 211.328 231.637,201.773 221.307,201.772 220.849 C 201.768 219.318,211.718 182.752,212.320 182.083 C 212.647 181.719,219.467 186.452,227.475 192.600 C 251.184 210.803,253.924 211.298,273.894 200.988 L 286.283 194.591 286.726 287.640 L 287.168 380.688 289.257 382.379 C 292.051 384.641,298.215 384.641,301.008 382.379 L 303.097 380.688 303.540 283.631 L 303.982 186.574 310.619 183.069 C 334.205 170.610,333.411 141.603,309.337 136.216 L 304.529 135.140 304.256 118.375 C 303.988 101.979,303.936 101.573,301.893 99.920 C 298.754 97.381,292.558 97.627,289.783 100.402 L 287.611 102.574 287.611 121.913 L 287.611 141.251 272.989 148.146 C 264.947 151.939,257.879 154.829,257.281 154.570 C 256.684 154.311,246.682 145.493,235.055 134.974 C 210.117 112.412,213.149 114.204,189.870 108.267 C 170.071 103.218,166.122 102.770,160.118 104.888 L 156.298 106.236 153.205 103.052 C 147.383 97.058,136.391 93.989,129.198 96.349 M141.814 115.145 C 144.564 118.457,143.588 124.257,133.838 162.541 C 122.273 207.946,120.771 210.710,105.532 214.614 C 84.613 219.973,65.323 195.625,75.375 176.549 C 77.921 171.716,130.947 113.677,133.475 112.955 C 136.174 112.185,140.243 113.253,141.814 115.145 M185.065 123.894 C 192.964 125.841,200.195 127.434,201.135 127.434 C 202.075 127.434,205.688 130.145,209.165 133.458 C 215.074 139.089,240.024 161.818,248.454 169.249 C 254.866 174.901,255.452 174.728,296.587 154.973 C 304.949 150.958,307.255 150.964,310.088 155.008 C 312.533 158.500,311.890 161.861,308.099 165.403 C 302.608 170.532,256.281 193.266,253.908 191.995 C 252.898 191.455,243.841 184.557,233.780 176.667 C 223.718 168.776,214.502 161.639,213.299 160.806 C 209.136 157.926,203.449 159.487,201.080 164.159 C 199.659 166.963,184.067 223.628,184.102 225.863 C 184.156 229.294,185.629 231.020,209.292 255.364 L 232.301 279.036 232.301 319.867 C 232.301 365.248,232.524 363.488,226.279 367.296 C 220.939 370.552,214.416 368.533,210.664 362.462 C 208.931 359.657,208.850 358.220,208.850 330.316 C 208.850 314.251,208.592 299.818,208.277 298.244 C 207.685 295.282,198.975 287.401,157.051 251.893 C 137.174 235.058,134.160 229.773,137.551 217.699 C 138.303 215.022,143.911 192.920,150.014 168.584 C 163.881 113.285,160.340 117.800,185.065 123.894 M144.357 264.292 C 147.461 267.042,151.570 270.694,153.489 272.408 L 156.978 275.525 151.719 291.081 L 146.460 306.637 127.320 335.398 C 114.224 355.077,107.334 364.648,105.502 365.708 C 99.885 368.956,92.215 366.480,89.770 360.629 C 87.066 354.157,87.336 353.623,108.264 324.072 L 124.518 301.122 131.049 280.207 C 134.641 268.704,137.835 259.292,138.147 259.292 C 138.459 259.292,141.254 261.542,144.357 264.292 " stroke="none" fill="#000000" fill-rule="evenodd"></path></g></svg>