<svg id="svg" version="1.1" xmlns="http://www.w3.org/2000/svg" xmlns:xlink="http://www.w3.org/1999/xlink" width="400" height="392.3923923923924" viewBox="0, 0, 400,392.3923923923924"><g id="svgg"><path id="path0" d="M108.138 106.541 C 79.014 112.255,68.510 151.968,90.290 174.019 C 112.223 196.224,147.741 181.523,150.522 149.088 C 152.738 123.238,131.532 101.952,108.138 106.541 M277.764 106.930 C 252.532 113.132,241.351 145.992,256.747 168.698 C 273.422 193.290,308.826 188.429,319.154 160.131 C 329.884 130.729,305.975 99.996,277.764 106.930 M119.862 118.752 C 136.245 122.976,143.975 145.444,134.316 160.761 C 120.457 182.736,90.765 171.936,90.833 144.945 C 90.876 127.727,105.054 114.935,119.862 118.752 M290.810 118.714 C 313.306 124.574,316.441 159.597,295.419 170.209 C 279.117 178.438,261.079 164.196,261.956 143.788 C 262.674 127.100,276.587 115.010,290.810 118.714 M194.088 131.165 C 164.528 136.509,153.740 177.108,176.019 199.168 C 194.556 217.524,224.571 209.825,233.665 184.382 C 243.825 155.953,221.680 126.176,194.088 131.165 M205.405 143.428 C 219.074 146.640,227.505 164.324,222.576 179.445 C 216.787 197.203,197.123 202.974,184.591 190.592 C 165.739 171.967,180.878 137.664,205.405 143.428 M92.947 185.807 C 73.137 187.783,56.717 202.308,52.233 221.822 C 51.188 226.372,50.902 247.643,51.843 250.880 C 52.741 253.968,55.824 257.120,58.819 258.009 C 60.847 258.611,107.891 258.655,129.767 258.075 L 136.410 257.899 136.668 266.480 C 136.991 277.208,137.987 279.719,142.883 282.156 C 145.975 283.695,253.297 283.097,256.864 281.521 C 262.352 279.097,263.454 276.530,263.460 266.166 L 263.463 258.258 274.575 258.257 C 308.157 258.253,339.389 257.775,341.361 257.235 C 344.889 256.268,347.826 253.276,348.802 249.653 C 349.481 247.135,349.007 225.969,348.192 222.426 C 343.724 202.986,329.380 189.155,310.395 185.981 C 305.500 185.162,265.822 185.300,261.061 186.152 C 248.210 188.453,236.900 195.873,229.827 206.643 C 228.549 208.589,227.436 210.384,227.354 210.630 C 227.246 210.956,226.498 210.935,224.613 210.555 C 219.984 209.618,177.841 210.106,173.710 211.144 C 173.562 211.181,172.480 209.639,171.305 207.717 C 164.682 196.882,155.103 189.843,142.435 186.503 C 138.849 185.557,100.811 185.022,92.947 185.807 M136.937 197.814 C 146.620 199.342,156.458 205.887,160.870 213.738 L 161.768 215.335 159.663 216.527 C 150.341 221.804,142.388 231.659,138.961 242.181 L 137.832 245.646 127.275 245.895 C 121.468 246.032,104.735 246.187,90.090 246.239 L 63.463 246.333 63.355 238.007 C 63.078 216.736,71.194 203.958,88.160 198.954 C 92.519 197.668,130.401 196.783,136.937 197.814 M311.512 198.516 C 323.572 201.932,333.033 211.574,335.953 223.423 C 337.047 227.865,337.629 245.308,336.693 245.603 C 336.387 245.700,319.551 245.886,299.281 246.017 L 262.425 246.255 261.516 243.148 C 258.344 232.311,250.666 222.386,240.909 216.508 L 238.639 215.141 240.583 212.375 C 247.567 202.441,256.164 198.247,270.470 197.796 C 288.552 197.225,308.169 197.569,311.512 198.516 M225.590 223.204 C 236.079 225.865,244.769 233.481,248.793 243.542 C 250.800 248.557,251.110 250.660,251.337 260.761 L 251.551 270.270 242.592 270.352 C 237.665 270.398,232.643 270.459,231.431 270.490 C 230.220 270.520,211.151 270.678,189.055 270.841 L 148.880 271.136 149.041 260.393 C 149.187 250.533,149.276 249.419,150.117 246.847 C 154.365 233.848,164.616 224.876,177.578 222.812 C 179.841 222.451,186.788 222.290,201.250 222.262 L 221.719 222.222 225.590 223.204 " stroke="none" fill="#000000" fill-rule="evenodd"></path></g></svg>